<svg id="Layer_1" data-name="Layer 1" xmlns="http://www.w3.org/2000/svg" viewBox="0 0 64 64"><title>Icons 200</title><path d="M53.0208,30.0208H51.6572l.1665,1.8316q.1969,2.1673.1971,4.3457v9.8227a4,4,0,0,1-4,4h-32a4,4,0,0,1-4-4V36.1981q0-2.1762.197-4.3457l.1665-1.8316H11.0209a2,2,0,0,1-2-2v-6a2,2,0,0,1,2-2h2.2727l.5315-5.847a3.9956,3.9956,0,0,1,2.34-3.2864A42.3046,42.3046,0,0,1,32.0208,8.0208a42.3042,42.3042,0,0,1,15.8553,2.8666,3.9955,3.9955,0,0,1,2.34,3.2864l.5315,5.847h2.2727a2,2,0,0,1,2,2v6A2,2,0,0,1,53.0208,30.0208Zm-8,14a3,3,0,1,0-3-3A3,3,0,0,0,45.0208,44.0208Zm-26,0a3,3,0,1,0-3-3A3,3,0,0,0,19.0209,44.0208Zm19-33h-12a2,2,0,1,0,0,4h12a2,2,0,1,0,0-4Zm10.007,21.1937L46.89,19.84a2.0148,2.0148,0,0,0-2.0155-1.819H19.1675a2.0146,2.0146,0,0,0-2.0154,1.819L16.0139,32.2146a1.6648,1.6648,0,0,0,1.67,1.8062H46.3761a1.6483,1.6483,0,0,0,1.6532-1.7882ZM15.0209,52.0208h6a1,1,0,0,1,1,1v1a2,2,0,0,1-2,2h-4a2,2,0,0,1-2-2v-1A1,1,0,0,1,15.0209,52.0208Zm28,0h6a1,1,0,0,1,1,1v1a2,2,0,0,1-2,2h-4a2,2,0,0,1-2-2v-1A1,1,0,0,1,43.021,52.0208Z" fill-rule="evenodd"/></svg>