<svg id="Layer_1" data-name="Layer 1" xmlns="http://www.w3.org/2000/svg" viewBox="0 0 64 64"><title>Icons 500</title><path d="M48.7772,42.724A4.0025,4.0025,0,0,1,44.8427,46H19.1575a4.0026,4.0026,0,0,1-3.9347-3.276A86.6642,86.6642,0,0,1,14,27a86.6664,86.6664,0,0,1,1.2228-15.7241A4.0026,4.0026,0,0,1,19.1575,8H44.8427a4.0025,4.0025,0,0,1,3.9345,3.2759A86.6613,86.6613,0,0,1,50,27,86.659,86.659,0,0,1,48.7772,42.724ZM21,40a3,3,0,1,0-3-3A3,3,0,0,0,21,40ZM38,11H26a2,2,0,1,0,0,4H38a2,2,0,0,0,0-4Zm7.7033,7.9142A.9954.9954,0,0,0,44.7063,18H19.2937a.9951.9951,0,0,0-.9972.9143C18.12,21.1844,18,23.8547,18,27c0,.6969.0071,1.3654.0189,2.0144a1.0013,1.0013,0,0,0,1,.9856H44.9811a1.0013,1.0013,0,0,0,1-.9856C45.9928,28.3654,46,27.6969,46,27,46,23.8552,45.88,21.1851,45.7035,18.9143ZM43,34a3,3,0,1,0,3,3A3,3,0,0,0,43,34ZM21.19,48.4453A.9946.9946,0,0,1,22.0191,48h.9966a1,1,0,0,1,.9454,1.3164L23.7338,50H40.2353l-.2273-.6837A.9986.9986,0,0,1,40.953,48H41.95a.9963.9963,0,0,1,.8292.4453l3.9861,6A1,1,0,0,1,45.936,56h-2.99a.9958.9958,0,0,1-.945-.6837L41.564,54H22.4051l-.4372,1.3163A.9969.9969,0,0,1,21.0225,56h-2.99a1,1,0,0,1-.8289-1.5547Z" fill-rule="evenodd"/></svg>