<svg id="Layer_1" data-name="Layer 1" xmlns="http://www.w3.org/2000/svg" viewBox="0 0 64 64"><title>Icons 500</title><path d="M48.2887,44.6389l-.7555,1.1345A4.9931,4.9931,0,0,1,43.3777,48H20.6156A4.9929,4.9929,0,0,1,16.46,45.7735l-.7558-1.1346a15.6247,15.6247,0,0,1-2.68-8.3127,27.9841,27.9841,0,0,1,.25-4.3453l2.251-16.5217A3.9957,3.9957,0,0,1,19.4829,12H30.0018V8H24a2,2,0,1,1,0-4H40a2,2,0,0,1,0,4H33.9953v4H44.5107a3.9953,3.9953,0,0,1,3.9566,3.4592l2.251,16.5217a27.9363,27.9363,0,0,1,.25,4.3493A15.6218,15.6218,0,0,1,48.2887,44.6389ZM41.9848,42a3,3,0,1,0-2.996-3A2.9982,2.9982,0,0,0,41.9848,42ZM22.0083,42a3,3,0,1,0-2.9962-3A2.9982,2.9982,0,0,0,22.0083,42ZM44.9028,18.8648A.9986.9986,0,0,0,43.9138,18H20.0771a.9991.9991,0,0,0-.9893.8648l-1.635,12A.9994.9994,0,0,0,18.4418,32h27.107a.9994.9994,0,0,0,.9893-1.1353ZM21.1993,50.4453A.993.993,0,0,1,22.0272,50h.9956a.9937.9937,0,0,1,.8071.415,1.0058,1.0058,0,0,1,.1372.9014L23.74,52H40.2222l-.2268-.6837A.9984.9984,0,0,1,40.9393,50h.9954a.9944.9944,0,0,1,.8281.4453l3.9815,6a1.0047,1.0047,0,0,1,.0493,1.0264A.994.994,0,0,1,45.9162,58H42.93a.995.995,0,0,1-.9439-.6837L41.5493,56H22.4131l-.4367,1.3163A.9961.9961,0,0,1,21.0319,58h-2.986a1,1,0,0,1-.8281-1.5547Z" fill-rule="evenodd"/></svg>