<svg id="Layer_1" data-name="Layer 1" xmlns="http://www.w3.org/2000/svg" viewBox="0 0 64 64"><title>Icons 200</title><path d="M17.0208,44.0216h0a3.3642,3.3642,0,0,1,2.8,1.4989l1.3721,2.06a1,1,0,0,0,.8321.4455H42.0176a.999.999,0,0,0,.8312-.445l1.3724-2.06a3.3641,3.3641,0,0,1,2.8-1.4989,3,3,0,0,0,3-3V16.0208c0-8.0873-10.38-10-18-10s-18,1.9127-18,10V41.0216A3,3,0,0,0,17.0208,44.0216Zm26-4.0014a3,3,0,1,1,3-3A3,3,0,0,1,43.0208,40.02Zm3-22.9991v8a1,1,0,0,1-1,1h-10a1,1,0,0,1-1-1v-8a1,1,0,0,1,1-1h10A1,1,0,0,1,46.0208,17.0211Zm-20-8h12a2,2,0,1,1,0,4h-12a2,2,0,1,1,0-4Zm-8,8a1,1,0,0,1,1-1h10a1,1,0,0,1,1,1v8a1,1,0,0,1-1,1h-10a1,1,0,0,1-1-1Zm3,16.9985a3,3,0,1,1-3,3A3,3,0,0,1,21.0208,34.02Zm21.81,16.4437a.994.994,0,0,0-.8289-.4455h-.9967a.9951.9951,0,0,0-.808.4151,1.0054,1.0054,0,0,0-.1374.9019l.2271.684H23.7855l.2273-.684a.9991.9991,0,0,0-.9451-1.317h-.9966a.9958.9958,0,0,0-.8291.4455l-3.9861,6.0023a1.0006,1.0006,0,0,0,.8291,1.5552h2.99a.9957.9957,0,0,0,.9449-.6838L22.457,56.02H41.6156l.4373,1.3168a.9967.9967,0,0,0,.9454.6838h2.99a1,1,0,0,0,.8291-1.5552Z" fill-rule="evenodd"/></svg>