<svg id="Layer_1" data-name="Layer 1" xmlns="http://www.w3.org/2000/svg" viewBox="0 0 64 64"><title>Icons 200</title><path d="M54.5946,27.4366a1.9929,1.9929,0,0,1-2.73.0819,30.002,30.002,0,0,0-39.6789,0,1.9927,1.9927,0,0,1-2.73-.0819L6.6247,24.6071a2.0043,2.0043,0,0,1,.0784-2.9092,38.0011,38.0011,0,0,1,50.6441,0,2.0042,2.0042,0,0,1,.0784,2.9092ZM36.9635,41.3326a2.0849,2.0849,0,0,1,.4432,3.2957l-3.6928,3.6684a2.4218,2.4218,0,0,1-3.4087,0l-3.6928-3.6684a2.085,2.085,0,0,1,.4431-3.2957,10.094,10.094,0,0,1,9.908,0Zm-14.8508-3.792a2.1058,2.1058,0,0,1-2.8273-.13l-2.3847-2.4084c-1.1739-1.1855-1.14-2.6381-.1975-3.4266a23.8106,23.8106,0,0,1,30.5814,0,2.13,2.13,0,0,1,.11,3.1162l-2.6883,2.7151a2.1107,2.1107,0,0,1-2.8309.1338,15.63,15.63,0,0,0-19.7626,0Z" fill-rule="evenodd"/></svg>